<mxfile host="app.diagrams.net" agent="Mozilla/5.0 (Macintosh; Intel Mac OS X 10_15_7) AppleWebKit/537.36 (KHTML, like Gecko) Chrome/132.0.0.0 Safari/537.36" version="26.0.11">
  <diagram name="Page-1" id="03018318-947c-dd8e-b7a3-06fadd420f32">
    <mxGraphModel dx="1368" dy="867" grid="1" gridSize="10" guides="1" tooltips="1" connect="1" arrows="1" fold="1" page="1" pageScale="1" pageWidth="1100" pageHeight="850" background="none" math="0" shadow="0">
      <root>
        <mxCell id="0" />
        <mxCell id="1" parent="0" />
        <mxCell id="677b7b8949515195-1" value="" style="whiteSpace=wrap;html=1;rounded=0;shadow=0;labelBackgroundColor=none;strokeColor=#000000;strokeWidth=1;fillColor=none;fontFamily=Verdana;fontSize=12;fontColor=#000000;align=center;comic=1;" parent="1" vertex="1">
          <mxGeometry x="20" y="40" width="1060" height="790" as="geometry" />
        </mxCell>
        <mxCell id="ywKk5z_2qfM9JBNrJSl7-1" value="" style="rounded=0;whiteSpace=wrap;html=1;fillColor=none;" parent="1" vertex="1">
          <mxGeometry x="30" y="50" width="1000" height="90" as="geometry" />
        </mxCell>
        <mxCell id="zX-MKMj06BqSPDNbv460-1" value="&lt;font style=&quot;font-size: 18px;&quot;&gt;companyitassets/reports/tickets/&lt;/font&gt;" style="html=1;strokeWidth=1;shadow=0;dashed=0;shape=mxgraph.ios7ui.url;fillColor=#e0e0e0;strokeColor=#c0c0c0;buttonText=;strokeColor2=#222222;fontColor=#222222;fontSize=8;spacingTop=2;align=center;whiteSpace=wrap;" parent="1" vertex="1">
          <mxGeometry x="20" width="1050" height="32.5" as="geometry" />
        </mxCell>
        <mxCell id="ywKk5z_2qfM9JBNrJSl7-2" value="&lt;font style=&quot;font-size: 14px;&quot;&gt;From&lt;/font&gt;" style="fillColor=none;strokeColor=none;html=1;fontSize=12;fontStyle=0;align=left;fontColor=#596780;fontStyle=1;fontSize=11;sketch=1;hachureGap=4;pointerEvents=0;fontFamily=Helvetica;" parent="1" vertex="1">
          <mxGeometry x="40" y="50" width="40" height="25" as="geometry" />
        </mxCell>
        <mxCell id="ywKk5z_2qfM9JBNrJSl7-3" value="&lt;font style=&quot;font-size: 14px;&quot; face=&quot;Helvetica&quot;&gt;04-11-24&lt;/font&gt;" style="rounded=1;arcSize=9;fillColor=#F7F8F9;align=left;spacingLeft=5;strokeColor=#DEE1E6;html=1;strokeWidth=2;fontColor=#596780;fontSize=12;sketch=1;hachureGap=4;pointerEvents=0;fontFamily=Architects Daughter;fontSource=https%3A%2F%2Ffonts.googleapis.com%2Fcss%3Ffamily%3DArchitects%2BDaughter;" parent="1" vertex="1">
          <mxGeometry x="40" y="74.5" width="150" height="33" as="geometry" />
        </mxCell>
        <mxCell id="ywKk5z_2qfM9JBNrJSl7-4" value="" style="shape=mxgraph.gmdl.calendar;fillColor=#5A6881;strokeColor=none;sketch=0;hachureGap=4;pointerEvents=0;fontFamily=Architects Daughter;fontSource=https%3A%2F%2Ffonts.googleapis.com%2Fcss%3Ffamily%3DArchitects%2BDaughter;fontSize=20;" parent="ywKk5z_2qfM9JBNrJSl7-3" vertex="1">
          <mxGeometry x="1" y="0.5" width="18" height="18" relative="1" as="geometry">
            <mxPoint x="-29" y="-9" as="offset" />
          </mxGeometry>
        </mxCell>
        <mxCell id="ywKk5z_2qfM9JBNrJSl7-5" value="&lt;font style=&quot;font-size: 14px;&quot;&gt;To&lt;/font&gt;" style="fillColor=none;strokeColor=none;html=1;fontSize=12;fontStyle=0;align=left;fontColor=#596780;fontStyle=1;fontSize=11;sketch=1;hachureGap=4;pointerEvents=0;fontFamily=Helvetica;" parent="1" vertex="1">
          <mxGeometry x="200" y="50" width="20" height="25" as="geometry" />
        </mxCell>
        <mxCell id="ywKk5z_2qfM9JBNrJSl7-6" value="&lt;font style=&quot;font-size: 14px;&quot; face=&quot;Helvetica&quot;&gt;04-02-25&lt;/font&gt;" style="rounded=1;arcSize=9;fillColor=#F7F8F9;align=left;spacingLeft=5;strokeColor=#DEE1E6;html=1;strokeWidth=2;fontColor=#596780;fontSize=12;sketch=1;hachureGap=4;pointerEvents=0;fontFamily=Architects Daughter;fontSource=https%3A%2F%2Ffonts.googleapis.com%2Fcss%3Ffamily%3DArchitects%2BDaughter;" parent="1" vertex="1">
          <mxGeometry x="200" y="75" width="150" height="33" as="geometry" />
        </mxCell>
        <mxCell id="ywKk5z_2qfM9JBNrJSl7-7" value="" style="shape=mxgraph.gmdl.calendar;fillColor=#5A6881;strokeColor=none;sketch=0;hachureGap=4;pointerEvents=0;fontFamily=Architects Daughter;fontSource=https%3A%2F%2Ffonts.googleapis.com%2Fcss%3Ffamily%3DArchitects%2BDaughter;fontSize=20;" parent="ywKk5z_2qfM9JBNrJSl7-6" vertex="1">
          <mxGeometry x="1" y="0.5" width="18" height="18" relative="1" as="geometry">
            <mxPoint x="-29" y="-9" as="offset" />
          </mxGeometry>
        </mxCell>
        <mxCell id="ywKk5z_2qfM9JBNrJSl7-8" value="Apply" style="rounded=1;fillColor=#0057D8;strokeColor=none;html=1;whiteSpace=wrap;fontColor=#ffffff;align=center;verticalAlign=middle;fontStyle=0;fontSize=12;sketch=0;" parent="1" vertex="1">
          <mxGeometry x="520" y="70.5" width="86" height="33" as="geometry" />
        </mxCell>
        <mxCell id="ywKk5z_2qfM9JBNrJSl7-84" value="&lt;i&gt;&lt;font style=&quot;color: light-dark(rgb(0, 0, 0), rgb(125, 125, 125));&quot;&gt;The default date values are from: today minus 3 months, to: today&amp;nbsp;&lt;/font&gt;&lt;/i&gt;" style="text;html=1;align=left;verticalAlign=middle;whiteSpace=wrap;rounded=0;" parent="1" vertex="1">
          <mxGeometry x="40" y="108" width="360" height="30" as="geometry" />
        </mxCell>
        <mxCell id="N3RhH1qTN14WOQrYuTi2-75" value="" style="verticalLabelPosition=bottom;shadow=0;dashed=0;align=center;html=1;verticalAlign=top;strokeWidth=1;shape=mxgraph.mockup.navigation.scrollBar;strokeColor=#999999;barPos=84.842;fillColor2=#99ddff;strokeColor2=none;direction=north;" parent="1" vertex="1">
          <mxGeometry x="1050" y="50" width="20" height="750" as="geometry" />
        </mxCell>
        <mxCell id="N3RhH1qTN14WOQrYuTi2-86" value="Ticket Type" style="text;html=1;align=left;verticalAlign=middle;whiteSpace=wrap;rounded=0;" parent="1" vertex="1">
          <mxGeometry x="360" y="50" width="70" height="30" as="geometry" />
        </mxCell>
        <mxCell id="N3RhH1qTN14WOQrYuTi2-87" value="Any" style="html=1;shadow=0;dashed=0;shape=mxgraph.bootstrap.rrect;rSize=5;strokeColor=none;strokeWidth=1;fillColor=#6C767D;fontColor=#ffffff;whiteSpace=wrap;align=right;verticalAlign=middle;fontStyle=0;fontSize=14;spacingRight=20;" parent="1" vertex="1">
          <mxGeometry x="360" y="74.5" width="120" height="29" as="geometry" />
        </mxCell>
        <mxCell id="N3RhH1qTN14WOQrYuTi2-88" value="" style="shape=triangle;direction=south;fillColor=#ffffff;strokeColor=none;perimeter=none;" parent="N3RhH1qTN14WOQrYuTi2-87" vertex="1">
          <mxGeometry x="1" y="0.5" width="10" height="5" relative="1" as="geometry">
            <mxPoint x="-17" y="-2.5" as="offset" />
          </mxGeometry>
        </mxCell>
        <mxCell id="2YvyVDsqWC8e32gDFTf4-1" value="" style="shape=table;startSize=0;container=1;collapsible=0;childLayout=tableLayout;fontSize=16;" vertex="1" parent="1">
          <mxGeometry x="30" y="210" width="1000" height="200" as="geometry" />
        </mxCell>
        <mxCell id="2YvyVDsqWC8e32gDFTf4-2" value="" style="shape=tableRow;horizontal=0;startSize=0;swimlaneHead=0;swimlaneBody=0;strokeColor=inherit;top=0;left=0;bottom=0;right=0;collapsible=0;dropTarget=0;fillColor=none;points=[[0,0.5],[1,0.5]];portConstraint=eastwest;fontSize=16;" vertex="1" parent="2YvyVDsqWC8e32gDFTf4-1">
          <mxGeometry width="1000" height="40" as="geometry" />
        </mxCell>
        <mxCell id="2YvyVDsqWC8e32gDFTf4-3" value="Ticket Type" style="shape=partialRectangle;html=1;whiteSpace=wrap;connectable=0;strokeColor=#6c8ebf;overflow=hidden;fillColor=#dae8fc;top=0;left=0;bottom=0;right=0;pointerEvents=1;fontSize=16;fontStyle=1" vertex="1" parent="2YvyVDsqWC8e32gDFTf4-2">
          <mxGeometry width="333" height="40" as="geometry">
            <mxRectangle width="333" height="40" as="alternateBounds" />
          </mxGeometry>
        </mxCell>
        <mxCell id="2YvyVDsqWC8e32gDFTf4-4" value="Number of Tickets" style="shape=partialRectangle;html=1;whiteSpace=wrap;connectable=0;strokeColor=#6c8ebf;overflow=hidden;fillColor=#dae8fc;top=0;left=0;bottom=0;right=0;pointerEvents=1;fontSize=16;fontStyle=1" vertex="1" parent="2YvyVDsqWC8e32gDFTf4-2">
          <mxGeometry x="333" width="334" height="40" as="geometry">
            <mxRectangle width="334" height="40" as="alternateBounds" />
          </mxGeometry>
        </mxCell>
        <mxCell id="2YvyVDsqWC8e32gDFTf4-5" value="Average Resolution Time" style="shape=partialRectangle;html=1;whiteSpace=wrap;connectable=0;strokeColor=#6c8ebf;overflow=hidden;fillColor=#dae8fc;top=0;left=0;bottom=0;right=0;pointerEvents=1;fontSize=16;fontStyle=1" vertex="1" parent="2YvyVDsqWC8e32gDFTf4-2">
          <mxGeometry x="667" width="333" height="40" as="geometry">
            <mxRectangle width="333" height="40" as="alternateBounds" />
          </mxGeometry>
        </mxCell>
        <mxCell id="2YvyVDsqWC8e32gDFTf4-6" value="" style="shape=tableRow;horizontal=0;startSize=0;swimlaneHead=0;swimlaneBody=0;strokeColor=inherit;top=0;left=0;bottom=0;right=0;collapsible=0;dropTarget=0;fillColor=none;points=[[0,0.5],[1,0.5]];portConstraint=eastwest;fontSize=16;" vertex="1" parent="2YvyVDsqWC8e32gDFTf4-1">
          <mxGeometry y="40" width="1000" height="40" as="geometry" />
        </mxCell>
        <mxCell id="2YvyVDsqWC8e32gDFTf4-7" value="Maintenance" style="shape=partialRectangle;html=1;whiteSpace=wrap;connectable=0;strokeColor=inherit;overflow=hidden;fillColor=none;top=0;left=0;bottom=0;right=0;pointerEvents=1;fontSize=16;" vertex="1" parent="2YvyVDsqWC8e32gDFTf4-6">
          <mxGeometry width="333" height="40" as="geometry">
            <mxRectangle width="333" height="40" as="alternateBounds" />
          </mxGeometry>
        </mxCell>
        <mxCell id="2YvyVDsqWC8e32gDFTf4-8" value="245" style="shape=partialRectangle;html=1;whiteSpace=wrap;connectable=0;strokeColor=inherit;overflow=hidden;fillColor=none;top=0;left=0;bottom=0;right=0;pointerEvents=1;fontSize=16;" vertex="1" parent="2YvyVDsqWC8e32gDFTf4-6">
          <mxGeometry x="333" width="334" height="40" as="geometry">
            <mxRectangle width="334" height="40" as="alternateBounds" />
          </mxGeometry>
        </mxCell>
        <mxCell id="2YvyVDsqWC8e32gDFTf4-9" value="3 days" style="shape=partialRectangle;html=1;whiteSpace=wrap;connectable=0;strokeColor=inherit;overflow=hidden;fillColor=none;top=0;left=0;bottom=0;right=0;pointerEvents=1;fontSize=16;" vertex="1" parent="2YvyVDsqWC8e32gDFTf4-6">
          <mxGeometry x="667" width="333" height="40" as="geometry">
            <mxRectangle width="333" height="40" as="alternateBounds" />
          </mxGeometry>
        </mxCell>
        <mxCell id="2YvyVDsqWC8e32gDFTf4-10" value="" style="shape=tableRow;horizontal=0;startSize=0;swimlaneHead=0;swimlaneBody=0;strokeColor=inherit;top=0;left=0;bottom=0;right=0;collapsible=0;dropTarget=0;fillColor=none;points=[[0,0.5],[1,0.5]];portConstraint=eastwest;fontSize=16;" vertex="1" parent="2YvyVDsqWC8e32gDFTf4-1">
          <mxGeometry y="80" width="1000" height="40" as="geometry" />
        </mxCell>
        <mxCell id="2YvyVDsqWC8e32gDFTf4-11" value="Issue" style="shape=partialRectangle;html=1;whiteSpace=wrap;connectable=0;strokeColor=inherit;overflow=hidden;fillColor=none;top=0;left=0;bottom=0;right=0;pointerEvents=1;fontSize=16;" vertex="1" parent="2YvyVDsqWC8e32gDFTf4-10">
          <mxGeometry width="333" height="40" as="geometry">
            <mxRectangle width="333" height="40" as="alternateBounds" />
          </mxGeometry>
        </mxCell>
        <mxCell id="2YvyVDsqWC8e32gDFTf4-12" value="287" style="shape=partialRectangle;html=1;whiteSpace=wrap;connectable=0;strokeColor=inherit;overflow=hidden;fillColor=none;top=0;left=0;bottom=0;right=0;pointerEvents=1;fontSize=16;" vertex="1" parent="2YvyVDsqWC8e32gDFTf4-10">
          <mxGeometry x="333" width="334" height="40" as="geometry">
            <mxRectangle width="334" height="40" as="alternateBounds" />
          </mxGeometry>
        </mxCell>
        <mxCell id="2YvyVDsqWC8e32gDFTf4-13" value="5 days" style="shape=partialRectangle;html=1;whiteSpace=wrap;connectable=0;strokeColor=inherit;overflow=hidden;fillColor=none;top=0;left=0;bottom=0;right=0;pointerEvents=1;fontSize=16;" vertex="1" parent="2YvyVDsqWC8e32gDFTf4-10">
          <mxGeometry x="667" width="333" height="40" as="geometry">
            <mxRectangle width="333" height="40" as="alternateBounds" />
          </mxGeometry>
        </mxCell>
        <mxCell id="2YvyVDsqWC8e32gDFTf4-27" style="shape=tableRow;horizontal=0;startSize=0;swimlaneHead=0;swimlaneBody=0;strokeColor=inherit;top=0;left=0;bottom=0;right=0;collapsible=0;dropTarget=0;fillColor=none;points=[[0,0.5],[1,0.5]];portConstraint=eastwest;fontSize=16;" vertex="1" parent="2YvyVDsqWC8e32gDFTf4-1">
          <mxGeometry y="120" width="1000" height="40" as="geometry" />
        </mxCell>
        <mxCell id="2YvyVDsqWC8e32gDFTf4-28" value="Request" style="shape=partialRectangle;html=1;whiteSpace=wrap;connectable=0;strokeColor=inherit;overflow=hidden;fillColor=none;top=0;left=0;bottom=0;right=0;pointerEvents=1;fontSize=16;" vertex="1" parent="2YvyVDsqWC8e32gDFTf4-27">
          <mxGeometry width="333" height="40" as="geometry">
            <mxRectangle width="333" height="40" as="alternateBounds" />
          </mxGeometry>
        </mxCell>
        <mxCell id="2YvyVDsqWC8e32gDFTf4-29" value="65" style="shape=partialRectangle;html=1;whiteSpace=wrap;connectable=0;strokeColor=inherit;overflow=hidden;fillColor=none;top=0;left=0;bottom=0;right=0;pointerEvents=1;fontSize=16;" vertex="1" parent="2YvyVDsqWC8e32gDFTf4-27">
          <mxGeometry x="333" width="334" height="40" as="geometry">
            <mxRectangle width="334" height="40" as="alternateBounds" />
          </mxGeometry>
        </mxCell>
        <mxCell id="2YvyVDsqWC8e32gDFTf4-30" value="4 days" style="shape=partialRectangle;html=1;whiteSpace=wrap;connectable=0;strokeColor=inherit;overflow=hidden;fillColor=none;top=0;left=0;bottom=0;right=0;pointerEvents=1;fontSize=16;" vertex="1" parent="2YvyVDsqWC8e32gDFTf4-27">
          <mxGeometry x="667" width="333" height="40" as="geometry">
            <mxRectangle width="333" height="40" as="alternateBounds" />
          </mxGeometry>
        </mxCell>
        <mxCell id="2YvyVDsqWC8e32gDFTf4-31" style="shape=tableRow;horizontal=0;startSize=0;swimlaneHead=0;swimlaneBody=0;strokeColor=inherit;top=0;left=0;bottom=0;right=0;collapsible=0;dropTarget=0;fillColor=none;points=[[0,0.5],[1,0.5]];portConstraint=eastwest;fontSize=16;" vertex="1" parent="2YvyVDsqWC8e32gDFTf4-1">
          <mxGeometry y="160" width="1000" height="40" as="geometry" />
        </mxCell>
        <mxCell id="2YvyVDsqWC8e32gDFTf4-32" value="Other" style="shape=partialRectangle;html=1;whiteSpace=wrap;connectable=0;strokeColor=inherit;overflow=hidden;fillColor=none;top=0;left=0;bottom=0;right=0;pointerEvents=1;fontSize=16;" vertex="1" parent="2YvyVDsqWC8e32gDFTf4-31">
          <mxGeometry width="333" height="40" as="geometry">
            <mxRectangle width="333" height="40" as="alternateBounds" />
          </mxGeometry>
        </mxCell>
        <mxCell id="2YvyVDsqWC8e32gDFTf4-33" value="57" style="shape=partialRectangle;html=1;whiteSpace=wrap;connectable=0;strokeColor=inherit;overflow=hidden;fillColor=none;top=0;left=0;bottom=0;right=0;pointerEvents=1;fontSize=16;" vertex="1" parent="2YvyVDsqWC8e32gDFTf4-31">
          <mxGeometry x="333" width="334" height="40" as="geometry">
            <mxRectangle width="334" height="40" as="alternateBounds" />
          </mxGeometry>
        </mxCell>
        <mxCell id="2YvyVDsqWC8e32gDFTf4-34" value="8 days" style="shape=partialRectangle;html=1;whiteSpace=wrap;connectable=0;strokeColor=inherit;overflow=hidden;fillColor=none;top=0;left=0;bottom=0;right=0;pointerEvents=1;fontSize=16;" vertex="1" parent="2YvyVDsqWC8e32gDFTf4-31">
          <mxGeometry x="667" width="333" height="40" as="geometry">
            <mxRectangle width="333" height="40" as="alternateBounds" />
          </mxGeometry>
        </mxCell>
        <mxCell id="2YvyVDsqWC8e32gDFTf4-14" value="" style="shape=table;startSize=0;container=1;collapsible=0;childLayout=tableLayout;fontSize=16;fillColor=#dae8fc;strokeColor=#6c8ebf;" vertex="1" parent="1">
          <mxGeometry x="30" y="150" width="1000" height="40" as="geometry" />
        </mxCell>
        <mxCell id="2YvyVDsqWC8e32gDFTf4-15" value="" style="shape=tableRow;horizontal=0;startSize=0;swimlaneHead=0;swimlaneBody=0;strokeColor=inherit;top=0;left=0;bottom=0;right=0;collapsible=0;dropTarget=0;fillColor=none;points=[[0,0.5],[1,0.5]];portConstraint=eastwest;fontSize=16;" vertex="1" parent="2YvyVDsqWC8e32gDFTf4-14">
          <mxGeometry width="1000" height="40" as="geometry" />
        </mxCell>
        <mxCell id="2YvyVDsqWC8e32gDFTf4-16" value="&lt;font style=&quot;font-size: 20px;&quot;&gt;Total Number of Tickets&lt;/font&gt;" style="shape=partialRectangle;html=1;whiteSpace=wrap;connectable=0;strokeColor=inherit;overflow=hidden;fillColor=none;top=0;left=0;bottom=0;right=0;pointerEvents=1;fontSize=16;align=left;" vertex="1" parent="2YvyVDsqWC8e32gDFTf4-15">
          <mxGeometry width="500" height="40" as="geometry">
            <mxRectangle width="500" height="40" as="alternateBounds" />
          </mxGeometry>
        </mxCell>
        <mxCell id="2YvyVDsqWC8e32gDFTf4-17" value="&lt;font style=&quot;font-size: 20px;&quot;&gt;654&lt;/font&gt;" style="shape=partialRectangle;html=1;whiteSpace=wrap;connectable=0;strokeColor=inherit;overflow=hidden;fillColor=none;top=0;left=0;bottom=0;right=0;pointerEvents=1;fontSize=16;align=left;" vertex="1" parent="2YvyVDsqWC8e32gDFTf4-15">
          <mxGeometry x="500" width="500" height="40" as="geometry">
            <mxRectangle width="500" height="40" as="alternateBounds" />
          </mxGeometry>
        </mxCell>
        <mxCell id="2YvyVDsqWC8e32gDFTf4-35" value="" style="shape=table;startSize=0;container=1;collapsible=0;childLayout=tableLayout;fontSize=16;" vertex="1" parent="1">
          <mxGeometry x="30" y="490" width="1010" height="200" as="geometry" />
        </mxCell>
        <mxCell id="2YvyVDsqWC8e32gDFTf4-36" value="" style="shape=tableRow;horizontal=0;startSize=0;swimlaneHead=0;swimlaneBody=0;strokeColor=inherit;top=0;left=0;bottom=0;right=0;collapsible=0;dropTarget=0;fillColor=none;points=[[0,0.5],[1,0.5]];portConstraint=eastwest;fontSize=16;" vertex="1" parent="2YvyVDsqWC8e32gDFTf4-35">
          <mxGeometry width="1010" height="40" as="geometry" />
        </mxCell>
        <mxCell id="2YvyVDsqWC8e32gDFTf4-37" value="Ticket Type" style="shape=partialRectangle;html=1;whiteSpace=wrap;connectable=0;strokeColor=#6c8ebf;overflow=hidden;fillColor=#dae8fc;top=0;left=0;bottom=0;right=0;pointerEvents=1;fontSize=16;fontStyle=1" vertex="1" parent="2YvyVDsqWC8e32gDFTf4-36">
          <mxGeometry width="202" height="40" as="geometry">
            <mxRectangle width="202" height="40" as="alternateBounds" />
          </mxGeometry>
        </mxCell>
        <mxCell id="2YvyVDsqWC8e32gDFTf4-38" value="Completed" style="shape=partialRectangle;html=1;whiteSpace=wrap;connectable=0;strokeColor=#6c8ebf;overflow=hidden;fillColor=#dae8fc;top=0;left=0;bottom=0;right=0;pointerEvents=1;fontSize=16;fontStyle=1" vertex="1" parent="2YvyVDsqWC8e32gDFTf4-36">
          <mxGeometry x="202" width="203" height="40" as="geometry">
            <mxRectangle width="203" height="40" as="alternateBounds" />
          </mxGeometry>
        </mxCell>
        <mxCell id="2YvyVDsqWC8e32gDFTf4-39" value="Cancelled" style="shape=partialRectangle;html=1;whiteSpace=wrap;connectable=0;strokeColor=#6c8ebf;overflow=hidden;fillColor=#dae8fc;top=0;left=0;bottom=0;right=0;pointerEvents=1;fontSize=16;fontStyle=1" vertex="1" parent="2YvyVDsqWC8e32gDFTf4-36">
          <mxGeometry x="405" width="201" height="40" as="geometry">
            <mxRectangle width="201" height="40" as="alternateBounds" />
          </mxGeometry>
        </mxCell>
        <mxCell id="2YvyVDsqWC8e32gDFTf4-63" value="User Error" style="shape=partialRectangle;html=1;whiteSpace=wrap;connectable=0;strokeColor=#6c8ebf;overflow=hidden;fillColor=#dae8fc;top=0;left=0;bottom=0;right=0;pointerEvents=1;fontSize=16;fontStyle=1" vertex="1" parent="2YvyVDsqWC8e32gDFTf4-36">
          <mxGeometry x="606" width="202" height="40" as="geometry">
            <mxRectangle width="202" height="40" as="alternateBounds" />
          </mxGeometry>
        </mxCell>
        <mxCell id="2YvyVDsqWC8e32gDFTf4-58" value="Other" style="shape=partialRectangle;html=1;whiteSpace=wrap;connectable=0;strokeColor=#6c8ebf;overflow=hidden;fillColor=#dae8fc;top=0;left=0;bottom=0;right=0;pointerEvents=1;fontSize=16;fontStyle=1" vertex="1" parent="2YvyVDsqWC8e32gDFTf4-36">
          <mxGeometry x="808" width="202" height="40" as="geometry">
            <mxRectangle width="202" height="40" as="alternateBounds" />
          </mxGeometry>
        </mxCell>
        <mxCell id="2YvyVDsqWC8e32gDFTf4-40" value="" style="shape=tableRow;horizontal=0;startSize=0;swimlaneHead=0;swimlaneBody=0;strokeColor=inherit;top=0;left=0;bottom=0;right=0;collapsible=0;dropTarget=0;fillColor=none;points=[[0,0.5],[1,0.5]];portConstraint=eastwest;fontSize=16;" vertex="1" parent="2YvyVDsqWC8e32gDFTf4-35">
          <mxGeometry y="40" width="1010" height="40" as="geometry" />
        </mxCell>
        <mxCell id="2YvyVDsqWC8e32gDFTf4-41" value="Maintenance" style="shape=partialRectangle;html=1;whiteSpace=wrap;connectable=0;strokeColor=inherit;overflow=hidden;fillColor=none;top=0;left=0;bottom=0;right=0;pointerEvents=1;fontSize=16;" vertex="1" parent="2YvyVDsqWC8e32gDFTf4-40">
          <mxGeometry width="202" height="40" as="geometry">
            <mxRectangle width="202" height="40" as="alternateBounds" />
          </mxGeometry>
        </mxCell>
        <mxCell id="2YvyVDsqWC8e32gDFTf4-42" value="240" style="shape=partialRectangle;html=1;whiteSpace=wrap;connectable=0;strokeColor=inherit;overflow=hidden;fillColor=none;top=0;left=0;bottom=0;right=0;pointerEvents=1;fontSize=16;" vertex="1" parent="2YvyVDsqWC8e32gDFTf4-40">
          <mxGeometry x="202" width="203" height="40" as="geometry">
            <mxRectangle width="203" height="40" as="alternateBounds" />
          </mxGeometry>
        </mxCell>
        <mxCell id="2YvyVDsqWC8e32gDFTf4-43" value="4" style="shape=partialRectangle;html=1;whiteSpace=wrap;connectable=0;strokeColor=inherit;overflow=hidden;fillColor=none;top=0;left=0;bottom=0;right=0;pointerEvents=1;fontSize=16;" vertex="1" parent="2YvyVDsqWC8e32gDFTf4-40">
          <mxGeometry x="405" width="201" height="40" as="geometry">
            <mxRectangle width="201" height="40" as="alternateBounds" />
          </mxGeometry>
        </mxCell>
        <mxCell id="2YvyVDsqWC8e32gDFTf4-64" value="0" style="shape=partialRectangle;html=1;whiteSpace=wrap;connectable=0;strokeColor=inherit;overflow=hidden;fillColor=none;top=0;left=0;bottom=0;right=0;pointerEvents=1;fontSize=16;" vertex="1" parent="2YvyVDsqWC8e32gDFTf4-40">
          <mxGeometry x="606" width="202" height="40" as="geometry">
            <mxRectangle width="202" height="40" as="alternateBounds" />
          </mxGeometry>
        </mxCell>
        <mxCell id="2YvyVDsqWC8e32gDFTf4-59" value="1" style="shape=partialRectangle;html=1;whiteSpace=wrap;connectable=0;strokeColor=inherit;overflow=hidden;fillColor=none;top=0;left=0;bottom=0;right=0;pointerEvents=1;fontSize=16;" vertex="1" parent="2YvyVDsqWC8e32gDFTf4-40">
          <mxGeometry x="808" width="202" height="40" as="geometry">
            <mxRectangle width="202" height="40" as="alternateBounds" />
          </mxGeometry>
        </mxCell>
        <mxCell id="2YvyVDsqWC8e32gDFTf4-44" value="" style="shape=tableRow;horizontal=0;startSize=0;swimlaneHead=0;swimlaneBody=0;strokeColor=inherit;top=0;left=0;bottom=0;right=0;collapsible=0;dropTarget=0;fillColor=none;points=[[0,0.5],[1,0.5]];portConstraint=eastwest;fontSize=16;" vertex="1" parent="2YvyVDsqWC8e32gDFTf4-35">
          <mxGeometry y="80" width="1010" height="40" as="geometry" />
        </mxCell>
        <mxCell id="2YvyVDsqWC8e32gDFTf4-45" value="Issue" style="shape=partialRectangle;html=1;whiteSpace=wrap;connectable=0;strokeColor=inherit;overflow=hidden;fillColor=none;top=0;left=0;bottom=0;right=0;pointerEvents=1;fontSize=16;" vertex="1" parent="2YvyVDsqWC8e32gDFTf4-44">
          <mxGeometry width="202" height="40" as="geometry">
            <mxRectangle width="202" height="40" as="alternateBounds" />
          </mxGeometry>
        </mxCell>
        <mxCell id="2YvyVDsqWC8e32gDFTf4-46" value="198" style="shape=partialRectangle;html=1;whiteSpace=wrap;connectable=0;strokeColor=inherit;overflow=hidden;fillColor=none;top=0;left=0;bottom=0;right=0;pointerEvents=1;fontSize=16;" vertex="1" parent="2YvyVDsqWC8e32gDFTf4-44">
          <mxGeometry x="202" width="203" height="40" as="geometry">
            <mxRectangle width="203" height="40" as="alternateBounds" />
          </mxGeometry>
        </mxCell>
        <mxCell id="2YvyVDsqWC8e32gDFTf4-47" value="2" style="shape=partialRectangle;html=1;whiteSpace=wrap;connectable=0;strokeColor=inherit;overflow=hidden;fillColor=none;top=0;left=0;bottom=0;right=0;pointerEvents=1;fontSize=16;" vertex="1" parent="2YvyVDsqWC8e32gDFTf4-44">
          <mxGeometry x="405" width="201" height="40" as="geometry">
            <mxRectangle width="201" height="40" as="alternateBounds" />
          </mxGeometry>
        </mxCell>
        <mxCell id="2YvyVDsqWC8e32gDFTf4-65" value="87" style="shape=partialRectangle;html=1;whiteSpace=wrap;connectable=0;strokeColor=inherit;overflow=hidden;fillColor=none;top=0;left=0;bottom=0;right=0;pointerEvents=1;fontSize=16;" vertex="1" parent="2YvyVDsqWC8e32gDFTf4-44">
          <mxGeometry x="606" width="202" height="40" as="geometry">
            <mxRectangle width="202" height="40" as="alternateBounds" />
          </mxGeometry>
        </mxCell>
        <mxCell id="2YvyVDsqWC8e32gDFTf4-60" value="0" style="shape=partialRectangle;html=1;whiteSpace=wrap;connectable=0;strokeColor=inherit;overflow=hidden;fillColor=none;top=0;left=0;bottom=0;right=0;pointerEvents=1;fontSize=16;" vertex="1" parent="2YvyVDsqWC8e32gDFTf4-44">
          <mxGeometry x="808" width="202" height="40" as="geometry">
            <mxRectangle width="202" height="40" as="alternateBounds" />
          </mxGeometry>
        </mxCell>
        <mxCell id="2YvyVDsqWC8e32gDFTf4-48" style="shape=tableRow;horizontal=0;startSize=0;swimlaneHead=0;swimlaneBody=0;strokeColor=inherit;top=0;left=0;bottom=0;right=0;collapsible=0;dropTarget=0;fillColor=none;points=[[0,0.5],[1,0.5]];portConstraint=eastwest;fontSize=16;" vertex="1" parent="2YvyVDsqWC8e32gDFTf4-35">
          <mxGeometry y="120" width="1010" height="40" as="geometry" />
        </mxCell>
        <mxCell id="2YvyVDsqWC8e32gDFTf4-49" value="Request" style="shape=partialRectangle;html=1;whiteSpace=wrap;connectable=0;strokeColor=inherit;overflow=hidden;fillColor=none;top=0;left=0;bottom=0;right=0;pointerEvents=1;fontSize=16;" vertex="1" parent="2YvyVDsqWC8e32gDFTf4-48">
          <mxGeometry width="202" height="40" as="geometry">
            <mxRectangle width="202" height="40" as="alternateBounds" />
          </mxGeometry>
        </mxCell>
        <mxCell id="2YvyVDsqWC8e32gDFTf4-50" value="62" style="shape=partialRectangle;html=1;whiteSpace=wrap;connectable=0;strokeColor=inherit;overflow=hidden;fillColor=none;top=0;left=0;bottom=0;right=0;pointerEvents=1;fontSize=16;" vertex="1" parent="2YvyVDsqWC8e32gDFTf4-48">
          <mxGeometry x="202" width="203" height="40" as="geometry">
            <mxRectangle width="203" height="40" as="alternateBounds" />
          </mxGeometry>
        </mxCell>
        <mxCell id="2YvyVDsqWC8e32gDFTf4-51" value="0" style="shape=partialRectangle;html=1;whiteSpace=wrap;connectable=0;strokeColor=inherit;overflow=hidden;fillColor=none;top=0;left=0;bottom=0;right=0;pointerEvents=1;fontSize=16;" vertex="1" parent="2YvyVDsqWC8e32gDFTf4-48">
          <mxGeometry x="405" width="201" height="40" as="geometry">
            <mxRectangle width="201" height="40" as="alternateBounds" />
          </mxGeometry>
        </mxCell>
        <mxCell id="2YvyVDsqWC8e32gDFTf4-66" value="0" style="shape=partialRectangle;html=1;whiteSpace=wrap;connectable=0;strokeColor=inherit;overflow=hidden;fillColor=none;top=0;left=0;bottom=0;right=0;pointerEvents=1;fontSize=16;" vertex="1" parent="2YvyVDsqWC8e32gDFTf4-48">
          <mxGeometry x="606" width="202" height="40" as="geometry">
            <mxRectangle width="202" height="40" as="alternateBounds" />
          </mxGeometry>
        </mxCell>
        <mxCell id="2YvyVDsqWC8e32gDFTf4-61" value="3" style="shape=partialRectangle;html=1;whiteSpace=wrap;connectable=0;strokeColor=inherit;overflow=hidden;fillColor=none;top=0;left=0;bottom=0;right=0;pointerEvents=1;fontSize=16;" vertex="1" parent="2YvyVDsqWC8e32gDFTf4-48">
          <mxGeometry x="808" width="202" height="40" as="geometry">
            <mxRectangle width="202" height="40" as="alternateBounds" />
          </mxGeometry>
        </mxCell>
        <mxCell id="2YvyVDsqWC8e32gDFTf4-52" style="shape=tableRow;horizontal=0;startSize=0;swimlaneHead=0;swimlaneBody=0;strokeColor=inherit;top=0;left=0;bottom=0;right=0;collapsible=0;dropTarget=0;fillColor=none;points=[[0,0.5],[1,0.5]];portConstraint=eastwest;fontSize=16;" vertex="1" parent="2YvyVDsqWC8e32gDFTf4-35">
          <mxGeometry y="160" width="1010" height="40" as="geometry" />
        </mxCell>
        <mxCell id="2YvyVDsqWC8e32gDFTf4-53" value="Other" style="shape=partialRectangle;html=1;whiteSpace=wrap;connectable=0;strokeColor=inherit;overflow=hidden;fillColor=none;top=0;left=0;bottom=0;right=0;pointerEvents=1;fontSize=16;" vertex="1" parent="2YvyVDsqWC8e32gDFTf4-52">
          <mxGeometry width="202" height="40" as="geometry">
            <mxRectangle width="202" height="40" as="alternateBounds" />
          </mxGeometry>
        </mxCell>
        <mxCell id="2YvyVDsqWC8e32gDFTf4-54" value="45" style="shape=partialRectangle;html=1;whiteSpace=wrap;connectable=0;strokeColor=inherit;overflow=hidden;fillColor=none;top=0;left=0;bottom=0;right=0;pointerEvents=1;fontSize=16;" vertex="1" parent="2YvyVDsqWC8e32gDFTf4-52">
          <mxGeometry x="202" width="203" height="40" as="geometry">
            <mxRectangle width="203" height="40" as="alternateBounds" />
          </mxGeometry>
        </mxCell>
        <mxCell id="2YvyVDsqWC8e32gDFTf4-55" value="5" style="shape=partialRectangle;html=1;whiteSpace=wrap;connectable=0;strokeColor=inherit;overflow=hidden;fillColor=none;top=0;left=0;bottom=0;right=0;pointerEvents=1;fontSize=16;" vertex="1" parent="2YvyVDsqWC8e32gDFTf4-52">
          <mxGeometry x="405" width="201" height="40" as="geometry">
            <mxRectangle width="201" height="40" as="alternateBounds" />
          </mxGeometry>
        </mxCell>
        <mxCell id="2YvyVDsqWC8e32gDFTf4-67" value="0" style="shape=partialRectangle;html=1;whiteSpace=wrap;connectable=0;strokeColor=inherit;overflow=hidden;fillColor=none;top=0;left=0;bottom=0;right=0;pointerEvents=1;fontSize=16;" vertex="1" parent="2YvyVDsqWC8e32gDFTf4-52">
          <mxGeometry x="606" width="202" height="40" as="geometry">
            <mxRectangle width="202" height="40" as="alternateBounds" />
          </mxGeometry>
        </mxCell>
        <mxCell id="2YvyVDsqWC8e32gDFTf4-62" value="7" style="shape=partialRectangle;html=1;whiteSpace=wrap;connectable=0;strokeColor=inherit;overflow=hidden;fillColor=none;top=0;left=0;bottom=0;right=0;pointerEvents=1;fontSize=16;" vertex="1" parent="2YvyVDsqWC8e32gDFTf4-52">
          <mxGeometry x="808" width="202" height="40" as="geometry">
            <mxRectangle width="202" height="40" as="alternateBounds" />
          </mxGeometry>
        </mxCell>
        <mxCell id="2YvyVDsqWC8e32gDFTf4-57" value="Resolutions" style="text;strokeColor=none;fillColor=none;html=1;fontSize=24;fontStyle=1;verticalAlign=middle;align=center;" vertex="1" parent="1">
          <mxGeometry x="50" y="450" width="100" height="40" as="geometry" />
        </mxCell>
      </root>
    </mxGraphModel>
  </diagram>
</mxfile>
